<svg width="500" height="471" viewBox="0 0 500 471" fill="none" xmlns="http://www.w3.org/2000/svg">
<rect width="499.15" height="470.724" rx="138.41" fill="#1246FF"/>
<rect width="499.15" height="470.724" rx="138.41" fill="url(#paint0_linear_1635_310)"/>
<path d="M366.881 110.808C396.183 110.808 419.937 130.909 419.937 155.706C419.937 170.151 411.876 183.003 399.353 191.216C412.276 209.414 419.271 229.951 419.271 251.225C419.271 285.568 403.574 313.72 373.528 332.746C343.969 351.464 301.677 360.642 249.153 359.872C196.268 359.097 154.49 349.731 125.396 331.716C95.1689 313 79.5294 285.489 79.5294 251.225C79.5294 230.089 86.4335 209.396 99.1112 190.994C86.7816 182.774 78.8633 170.022 78.8633 155.706C78.8633 130.909 102.617 110.808 131.919 110.808C151.881 110.808 169.268 120.137 178.324 133.924C200.173 126.52 224.347 122.787 249.727 123.278C274.661 123.76 298.321 127.872 319.695 135.161C328.504 120.699 346.328 110.808 366.881 110.808ZM249.074 147.561C209.31 146.793 173.509 158.172 147.322 178.615C122.374 198.092 108.174 224.35 108.174 251.225C108.174 277.915 119.634 298.072 142.288 312.1C165.994 326.778 202.181 334.89 249.648 335.586C296.31 336.27 332.488 328.419 356.389 313.285C378.989 298.973 390.626 278.103 390.626 251.225C390.626 224.547 376.621 199.157 351.587 180.013C325.564 160.112 289.525 148.343 249.074 147.561ZM274.19 259.631C279.5 260.908 281.715 265.694 280.209 270.196C277.187 279.229 265.817 285.501 252.363 285.501C239.28 285.501 228.958 279.655 224.864 271.055C222.799 266.715 224.151 261.881 229.268 260.13C234.335 258.396 241.125 260.37 243.244 264.622C244.273 266.784 247.393 268.555 252.363 268.555C255.228 268.555 257.565 267.988 259.233 267.068C259.856 266.725 260.337 266.356 260.665 266.002C260.784 265.874 260.853 265.784 260.905 265.709L260.943 265.65C260.95 265.637 260.98 265.58 260.983 265.571C262.71 261.128 268.882 258.353 274.19 259.631ZM336.885 188.974C356.682 202.506 363.356 226.037 353.636 238.155C343.914 250.274 319.078 250.188 298.161 237.962C277.244 225.738 270.178 201.401 279.899 189.282C289.62 177.163 313.001 172.648 336.885 188.974ZM219.435 189.281C229.156 201.401 222.091 225.738 201.174 237.962C180.257 250.188 155.42 250.274 145.699 238.155C135.978 226.037 142.652 202.506 162.449 188.974C186.333 172.648 209.715 177.163 219.435 189.281Z" fill="white"/>
<defs>
<linearGradient id="paint0_linear_1635_310" x1="249.575" y1="0" x2="249.575" y2="470.724" gradientUnits="userSpaceOnUse">
<stop stop-color="white" stop-opacity="0"/>
<stop offset="1" stop-color="white" stop-opacity="0.4"/>
</linearGradient>
</defs>
</svg>
