<svg width="2072" height="500" viewBox="0 0 2072 500" fill="none" xmlns="http://www.w3.org/2000/svg">
<rect x="0.499133" y="0.499133" width="498.152" height="498.135" rx="137.911" fill="white"/>
<rect x="0.499133" y="0.499133" width="498.152" height="498.135" rx="137.911" stroke="#000128" stroke-width="0.998267"/>
<g clip-path="url(#clip0_1597_162)">
<path d="M367.214 139.262C396.516 139.262 420.27 159.363 420.27 184.16C420.27 198.605 412.209 211.457 399.686 219.67C412.609 237.868 419.604 258.405 419.604 279.679C419.604 314.022 403.907 342.175 373.861 361.2C344.302 379.918 302.01 389.096 249.486 388.326C196.601 387.551 154.823 378.185 125.729 360.17C95.5016 341.454 79.8622 313.944 79.8622 279.679C79.8622 258.543 86.7663 237.85 99.444 219.448C87.1144 211.228 79.196 198.476 79.196 184.16C79.196 159.364 102.95 139.262 132.252 139.262C152.214 139.262 169.601 148.591 178.657 162.378C200.506 154.974 224.68 151.242 250.06 151.732C274.994 152.214 298.654 156.326 320.027 163.615C328.836 149.153 346.661 139.262 367.214 139.262ZM249.407 176.015C209.643 175.247 173.842 186.626 147.655 207.069C122.706 226.546 108.507 252.804 108.507 279.679C108.507 306.369 119.966 326.526 142.621 340.554C166.327 355.232 202.514 363.345 249.981 364.04C296.643 364.724 332.821 356.873 356.721 341.739C379.322 327.427 390.959 306.557 390.959 279.679C390.959 253.001 376.953 227.612 351.92 208.467C325.897 188.566 289.858 176.797 249.407 176.015ZM274.523 288.085C279.833 289.362 282.048 294.148 280.542 298.65C277.52 307.683 266.15 313.955 252.696 313.955C239.613 313.955 229.29 308.109 225.197 299.509C223.132 295.169 224.483 290.335 229.601 288.584C234.667 286.85 241.458 288.824 243.577 293.076C244.606 295.238 247.725 297.009 252.696 297.009C255.561 297.009 257.898 296.442 259.566 295.522C260.188 295.179 260.669 294.81 260.998 294.456C261.117 294.328 261.185 294.239 261.238 294.163L261.276 294.104C261.282 294.091 261.313 294.034 261.316 294.025C263.043 289.582 269.214 286.808 274.523 288.085ZM337.218 217.428C357.015 230.96 363.689 254.491 353.969 266.609C344.247 278.729 319.41 278.642 298.494 266.417C277.576 254.192 270.511 229.855 280.232 217.736C289.953 205.617 313.334 201.102 337.218 217.428ZM219.768 217.736C229.489 229.855 222.424 254.192 201.507 266.417C180.59 278.642 155.753 278.728 146.032 266.609C136.311 254.491 142.985 230.96 162.782 217.428C186.666 201.102 210.047 205.617 219.768 217.736Z" fill="#000128"/>
</g>
<path d="M1985 170.097L1921.86 403.405H1842.84L1806.05 252.047L1768 403.405H1689.39L1625.84 170.097H1697.34L1730.37 336.925L1769.67 170.097H1845.35L1885.07 336.089L1917.68 170.097H1985Z" fill="white"/>
<path d="M1352.09 286.335C1352.09 262.363 1356.55 241.318 1365.47 223.199C1374.67 205.081 1387.08 191.144 1402.69 181.388C1418.3 171.632 1435.72 166.754 1454.95 166.754C1471.4 166.754 1485.75 170.099 1498.02 176.789C1510.56 183.479 1520.18 192.259 1526.87 203.13V170.099H1598.36V403.407H1526.87V370.376C1519.9 381.247 1510.14 390.028 1497.6 396.717C1485.33 403.407 1470.98 406.752 1454.53 406.752C1435.58 406.752 1418.3 401.874 1402.69 392.118C1387.08 382.083 1374.67 368.007 1365.47 349.888C1356.55 331.491 1352.09 310.307 1352.09 286.335ZM1526.87 286.753C1526.87 268.913 1521.85 254.837 1511.81 244.523C1502.06 234.21 1490.07 229.053 1475.86 229.053C1461.64 229.053 1449.51 234.21 1439.48 244.523C1429.72 254.558 1424.85 268.495 1424.85 286.335C1424.85 304.174 1429.72 318.39 1439.48 328.983C1449.51 339.296 1461.64 344.453 1475.86 344.453C1490.07 344.453 1502.06 339.296 1511.81 328.983C1521.85 318.669 1526.87 304.593 1526.87 286.753Z" fill="white"/>
<path d="M1314.5 94V403.405H1243V94H1314.5Z" fill="white"/>
<path d="M912.386 256.229C912.386 227.24 918.658 201.456 931.201 178.878C943.745 156.021 961.166 138.321 983.466 125.777C1006.04 112.955 1031.55 106.544 1059.98 106.544C1094.82 106.544 1124.65 115.742 1149.46 134.14C1174.27 152.537 1190.85 177.624 1199.21 209.4H1120.61C1114.75 197.136 1106.39 187.798 1095.52 181.387C1084.93 174.976 1072.8 171.77 1059.14 171.77C1037.12 171.77 1019.28 179.435 1005.63 194.766C991.968 210.097 985.138 230.585 985.138 256.229C985.138 281.874 991.968 302.361 1005.63 317.692C1019.28 333.023 1037.12 340.689 1059.14 340.689C1072.8 340.689 1084.93 337.483 1095.52 331.072C1106.39 324.661 1114.75 315.323 1120.61 303.058H1199.21C1190.85 334.835 1174.27 359.922 1149.46 378.319C1124.65 396.437 1094.82 405.496 1059.98 405.496C1031.55 405.496 1006.04 399.225 983.466 386.681C961.166 373.859 943.745 356.159 931.201 333.581C918.658 311.002 912.386 285.219 912.386 256.229Z" fill="white"/>
<path d="M798.95 351.558H689.404L671.843 403.405H597L703.201 109.888H785.988L892.19 403.405H816.511L798.95 351.558ZM780.553 296.367L744.177 188.911L708.219 296.367H780.553Z" fill="white"/>
<path d="M1990 170.097L1926.86 403.405H1847.84L1811.05 252.047L1773 403.405H1694.39L1630.84 170.097H1702.34L1735.37 336.925L1774.67 170.097H1850.35L1890.07 336.089L1922.68 170.097H1990Z" fill="white"/>
<path d="M1357.09 286.335C1357.09 262.363 1361.55 241.318 1370.47 223.199C1379.67 205.081 1392.08 191.144 1407.69 181.388C1423.3 171.632 1440.72 166.754 1459.95 166.754C1476.4 166.754 1490.75 170.099 1503.02 176.789C1515.56 183.479 1525.18 192.259 1531.87 203.13V170.099H1603.36V403.407H1531.87V370.376C1524.9 381.247 1515.14 390.028 1502.6 396.717C1490.33 403.407 1475.98 406.752 1459.53 406.752C1440.58 406.752 1423.3 401.874 1407.69 392.118C1392.08 382.083 1379.67 368.007 1370.47 349.888C1361.55 331.491 1357.09 310.307 1357.09 286.335ZM1531.87 286.753C1531.87 268.913 1526.85 254.837 1516.81 244.523C1507.06 234.21 1495.07 229.053 1480.86 229.053C1466.64 229.053 1454.51 234.21 1444.48 244.523C1434.72 254.558 1429.85 268.495 1429.85 286.335C1429.85 304.174 1434.72 318.39 1444.48 328.983C1454.51 339.296 1466.64 344.453 1480.86 344.453C1495.07 344.453 1507.06 339.296 1516.81 328.983C1526.85 318.669 1531.87 304.593 1531.87 286.753Z" fill="white"/>
<path d="M1319.5 94V403.405H1248V94H1319.5Z" fill="white"/>
<path d="M917.386 256.229C917.386 227.24 923.658 201.456 936.201 178.878C948.745 156.021 966.166 138.321 988.466 125.777C1011.04 112.955 1036.55 106.544 1064.98 106.544C1099.82 106.544 1129.65 115.742 1154.46 134.14C1179.27 152.537 1195.85 177.624 1204.21 209.4H1125.61C1119.75 197.136 1111.39 187.798 1100.52 181.387C1089.93 174.976 1077.8 171.77 1064.14 171.77C1042.12 171.77 1024.28 179.435 1010.63 194.766C996.968 210.097 990.138 230.585 990.138 256.229C990.138 281.874 996.968 302.361 1010.63 317.692C1024.28 333.023 1042.12 340.689 1064.14 340.689C1077.8 340.689 1089.93 337.483 1100.52 331.072C1111.39 324.661 1119.75 315.323 1125.61 303.058H1204.21C1195.85 334.835 1179.27 359.922 1154.46 378.319C1129.65 396.437 1099.82 405.496 1064.98 405.496C1036.55 405.496 1011.04 399.225 988.466 386.681C966.166 373.859 948.745 356.159 936.201 333.581C923.658 311.002 917.386 285.219 917.386 256.229Z" fill="white"/>
<path d="M803.95 351.558H694.404L676.843 403.405H602L708.201 109.888H790.988L897.19 403.405H821.511L803.95 351.558ZM785.553 296.367L749.177 188.911L713.219 296.367H785.553Z" fill="white"/>
<path d="M1985 170.097L1921.86 403.405H1842.84L1806.05 252.047L1768 403.405H1689.39L1625.84 170.097H1697.34L1730.37 336.925L1769.67 170.097H1845.35L1885.07 336.089L1917.68 170.097H1985Z" fill="white"/>
<path d="M1352.09 286.335C1352.09 262.363 1356.55 241.318 1365.47 223.199C1374.67 205.081 1387.08 191.144 1402.69 181.388C1418.3 171.632 1435.72 166.754 1454.95 166.754C1471.4 166.754 1485.75 170.099 1498.02 176.789C1510.56 183.479 1520.18 192.259 1526.87 203.13V170.099H1598.36V403.407H1526.87V370.376C1519.9 381.247 1510.14 390.028 1497.6 396.717C1485.33 403.407 1470.98 406.752 1454.53 406.752C1435.58 406.752 1418.3 401.874 1402.69 392.118C1387.08 382.083 1374.67 368.007 1365.47 349.888C1356.55 331.491 1352.09 310.307 1352.09 286.335ZM1526.87 286.753C1526.87 268.913 1521.85 254.837 1511.81 244.523C1502.06 234.21 1490.07 229.053 1475.86 229.053C1461.64 229.053 1449.51 234.21 1439.48 244.523C1429.72 254.558 1424.85 268.495 1424.85 286.335C1424.85 304.174 1429.72 318.39 1439.48 328.983C1449.51 339.296 1461.64 344.453 1475.86 344.453C1490.07 344.453 1502.06 339.296 1511.81 328.983C1521.85 318.669 1526.87 304.593 1526.87 286.753Z" fill="white"/>
<path d="M1314.5 94V403.405H1243V94H1314.5Z" fill="white"/>
<path d="M912.386 256.229C912.386 227.24 918.658 201.456 931.201 178.878C943.745 156.021 961.166 138.321 983.466 125.777C1006.04 112.955 1031.55 106.544 1059.98 106.544C1094.82 106.544 1124.65 115.742 1149.46 134.14C1174.27 152.537 1190.85 177.624 1199.21 209.4H1120.61C1114.75 197.136 1106.39 187.798 1095.52 181.387C1084.93 174.976 1072.8 171.77 1059.14 171.77C1037.12 171.77 1019.28 179.435 1005.63 194.766C991.968 210.097 985.138 230.585 985.138 256.229C985.138 281.874 991.968 302.361 1005.63 317.692C1019.28 333.023 1037.12 340.689 1059.14 340.689C1072.8 340.689 1084.93 337.483 1095.52 331.072C1106.39 324.661 1114.75 315.323 1120.61 303.058H1199.21C1190.85 334.835 1174.27 359.922 1149.46 378.319C1124.65 396.437 1094.82 405.496 1059.98 405.496C1031.55 405.496 1006.04 399.225 983.466 386.681C961.166 373.859 943.745 356.159 931.201 333.581C918.658 311.002 912.386 285.219 912.386 256.229Z" fill="white"/>
<path d="M798.95 351.558H689.404L671.843 403.405H597L703.201 109.888H785.988L892.19 403.405H816.511L798.95 351.558ZM780.553 296.367L744.177 188.911L708.219 296.367H780.553Z" fill="white"/>
<defs>
<clipPath id="clip0_1597_162">
<rect width="341.407" height="289.497" fill="white" transform="translate(78.863 104.818)"/>
</clipPath>
</defs>
</svg>
